<mxfile host="app.diagrams.net" modified="2022-10-31T08:41:09.102Z" agent="5.0 (Windows NT 10.0; Win64; x64) AppleWebKit/537.36 (KHTML, like Gecko) Chrome/107.0.0.0 Safari/537.36 Edg/107.0.1418.26" etag="4mzTyx3ASLVz5GzRdluT" version="20.5.1" type="github">
  <diagram id="xFLUwY8AGbZAqHrPL44i" name="第 1 页">
    <mxGraphModel dx="1550" dy="859" grid="1" gridSize="10" guides="1" tooltips="1" connect="1" arrows="1" fold="1" page="1" pageScale="1" pageWidth="827" pageHeight="1169" math="0" shadow="0">
      <root>
        <mxCell id="0" />
        <mxCell id="1" parent="0" />
        <mxCell id="p2f05vEZSLWd5B9eIsf3-1" value="Director" style="swimlane;fontStyle=1;align=center;verticalAlign=top;childLayout=stackLayout;horizontal=1;startSize=26;horizontalStack=0;resizeParent=1;resizeParentMax=0;resizeLast=0;collapsible=1;marginBottom=0;" vertex="1" parent="1">
          <mxGeometry x="10" y="319" width="190" height="138" as="geometry" />
        </mxCell>
        <mxCell id="p2f05vEZSLWd5B9eIsf3-2" value="- builder: Builder" style="text;strokeColor=none;fillColor=none;align=left;verticalAlign=top;spacingLeft=4;spacingRight=4;overflow=hidden;rotatable=0;points=[[0,0.5],[1,0.5]];portConstraint=eastwest;" vertex="1" parent="p2f05vEZSLWd5B9eIsf3-1">
          <mxGeometry y="26" width="190" height="26" as="geometry" />
        </mxCell>
        <mxCell id="p2f05vEZSLWd5B9eIsf3-3" value="" style="line;strokeWidth=1;fillColor=none;align=left;verticalAlign=middle;spacingTop=-1;spacingLeft=3;spacingRight=3;rotatable=0;labelPosition=right;points=[];portConstraint=eastwest;strokeColor=inherit;" vertex="1" parent="p2f05vEZSLWd5B9eIsf3-1">
          <mxGeometry y="52" width="190" height="8" as="geometry" />
        </mxCell>
        <mxCell id="p2f05vEZSLWd5B9eIsf3-78" value="+ Director(builder: Builder)" style="text;strokeColor=none;fillColor=none;align=left;verticalAlign=top;spacingLeft=4;spacingRight=4;overflow=hidden;rotatable=0;points=[[0,0.5],[1,0.5]];portConstraint=eastwest;" vertex="1" parent="p2f05vEZSLWd5B9eIsf3-1">
          <mxGeometry y="60" width="190" height="26" as="geometry" />
        </mxCell>
        <mxCell id="p2f05vEZSLWd5B9eIsf3-54" value="+ changeBuilder(builder: Builder)" style="text;strokeColor=none;fillColor=none;align=left;verticalAlign=top;spacingLeft=4;spacingRight=4;overflow=hidden;rotatable=0;points=[[0,0.5],[1,0.5]];portConstraint=eastwest;" vertex="1" parent="p2f05vEZSLWd5B9eIsf3-1">
          <mxGeometry y="86" width="190" height="26" as="geometry" />
        </mxCell>
        <mxCell id="p2f05vEZSLWd5B9eIsf3-55" value="+ make(type)" style="text;strokeColor=none;fillColor=none;align=left;verticalAlign=top;spacingLeft=4;spacingRight=4;overflow=hidden;rotatable=0;points=[[0,0.5],[1,0.5]];portConstraint=eastwest;" vertex="1" parent="p2f05vEZSLWd5B9eIsf3-1">
          <mxGeometry y="112" width="190" height="26" as="geometry" />
        </mxCell>
        <mxCell id="p2f05vEZSLWd5B9eIsf3-6" value="ConcreteBuilderA" style="swimlane;fontStyle=1;align=center;verticalAlign=top;childLayout=stackLayout;horizontal=1;startSize=26;horizontalStack=0;resizeParent=1;resizeParentMax=0;resizeLast=0;collapsible=1;marginBottom=0;" vertex="1" parent="1">
          <mxGeometry x="263" y="570" width="160" height="216" as="geometry">
            <mxRectangle x="226" y="380" width="140" height="30" as="alternateBounds" />
          </mxGeometry>
        </mxCell>
        <mxCell id="p2f05vEZSLWd5B9eIsf3-7" value="- produce: ProduceA" style="text;strokeColor=none;fillColor=none;align=left;verticalAlign=top;spacingLeft=4;spacingRight=4;overflow=hidden;rotatable=0;points=[[0,0.5],[1,0.5]];portConstraint=eastwest;" vertex="1" parent="p2f05vEZSLWd5B9eIsf3-6">
          <mxGeometry y="26" width="160" height="26" as="geometry" />
        </mxCell>
        <mxCell id="p2f05vEZSLWd5B9eIsf3-8" value="" style="line;strokeWidth=1;fillColor=none;align=left;verticalAlign=middle;spacingTop=-1;spacingLeft=3;spacingRight=3;rotatable=0;labelPosition=right;points=[];portConstraint=eastwest;strokeColor=inherit;" vertex="1" parent="p2f05vEZSLWd5B9eIsf3-6">
          <mxGeometry y="52" width="160" height="8" as="geometry" />
        </mxCell>
        <mxCell id="p2f05vEZSLWd5B9eIsf3-9" value="+ reset()" style="text;strokeColor=none;fillColor=none;align=left;verticalAlign=top;spacingLeft=4;spacingRight=4;overflow=hidden;rotatable=0;points=[[0,0.5],[1,0.5]];portConstraint=eastwest;" vertex="1" parent="p2f05vEZSLWd5B9eIsf3-6">
          <mxGeometry y="60" width="160" height="26" as="geometry" />
        </mxCell>
        <mxCell id="p2f05vEZSLWd5B9eIsf3-27" value="+ setStep1()" style="text;strokeColor=none;fillColor=none;align=left;verticalAlign=top;spacingLeft=4;spacingRight=4;overflow=hidden;rotatable=0;points=[[0,0.5],[1,0.5]];portConstraint=eastwest;" vertex="1" parent="p2f05vEZSLWd5B9eIsf3-6">
          <mxGeometry y="86" width="160" height="26" as="geometry" />
        </mxCell>
        <mxCell id="p2f05vEZSLWd5B9eIsf3-28" value="+ setStep2()" style="text;strokeColor=none;fillColor=none;align=left;verticalAlign=top;spacingLeft=4;spacingRight=4;overflow=hidden;rotatable=0;points=[[0,0.5],[1,0.5]];portConstraint=eastwest;" vertex="1" parent="p2f05vEZSLWd5B9eIsf3-6">
          <mxGeometry y="112" width="160" height="26" as="geometry" />
        </mxCell>
        <mxCell id="p2f05vEZSLWd5B9eIsf3-29" value="+ setStep3()" style="text;strokeColor=none;fillColor=none;align=left;verticalAlign=top;spacingLeft=4;spacingRight=4;overflow=hidden;rotatable=0;points=[[0,0.5],[1,0.5]];portConstraint=eastwest;" vertex="1" parent="p2f05vEZSLWd5B9eIsf3-6">
          <mxGeometry y="138" width="160" height="26" as="geometry" />
        </mxCell>
        <mxCell id="p2f05vEZSLWd5B9eIsf3-16" value="+ otherOperation()" style="text;strokeColor=none;fillColor=none;align=left;verticalAlign=top;spacingLeft=4;spacingRight=4;overflow=hidden;rotatable=0;points=[[0,0.5],[1,0.5]];portConstraint=eastwest;" vertex="1" parent="p2f05vEZSLWd5B9eIsf3-6">
          <mxGeometry y="164" width="160" height="26" as="geometry" />
        </mxCell>
        <mxCell id="p2f05vEZSLWd5B9eIsf3-18" value="+ getResult(): ProduceA" style="text;strokeColor=none;fillColor=none;align=left;verticalAlign=top;spacingLeft=4;spacingRight=4;overflow=hidden;rotatable=0;points=[[0,0.5],[1,0.5]];portConstraint=eastwest;" vertex="1" parent="p2f05vEZSLWd5B9eIsf3-6">
          <mxGeometry y="190" width="160" height="26" as="geometry" />
        </mxCell>
        <mxCell id="p2f05vEZSLWd5B9eIsf3-14" value="" style="endArrow=open;endFill=1;endSize=12;html=1;rounded=0;entryX=0;entryY=0.5;entryDx=0;entryDy=0;" edge="1" parent="1">
          <mxGeometry width="160" relative="1" as="geometry">
            <mxPoint x="200" y="381" as="sourcePoint" />
            <mxPoint x="360" y="381" as="targetPoint" />
          </mxGeometry>
        </mxCell>
        <mxCell id="p2f05vEZSLWd5B9eIsf3-30" value="ConcreteBuilderB" style="swimlane;fontStyle=1;align=center;verticalAlign=top;childLayout=stackLayout;horizontal=1;startSize=26;horizontalStack=0;resizeParent=1;resizeParentMax=0;resizeLast=0;collapsible=1;marginBottom=0;" vertex="1" parent="1">
          <mxGeometry x="487" y="570" width="160" height="216" as="geometry" />
        </mxCell>
        <mxCell id="p2f05vEZSLWd5B9eIsf3-31" value="- produce: ProduceB" style="text;strokeColor=none;fillColor=none;align=left;verticalAlign=top;spacingLeft=4;spacingRight=4;overflow=hidden;rotatable=0;points=[[0,0.5],[1,0.5]];portConstraint=eastwest;" vertex="1" parent="p2f05vEZSLWd5B9eIsf3-30">
          <mxGeometry y="26" width="160" height="26" as="geometry" />
        </mxCell>
        <mxCell id="p2f05vEZSLWd5B9eIsf3-32" value="" style="line;strokeWidth=1;fillColor=none;align=left;verticalAlign=middle;spacingTop=-1;spacingLeft=3;spacingRight=3;rotatable=0;labelPosition=right;points=[];portConstraint=eastwest;strokeColor=inherit;" vertex="1" parent="p2f05vEZSLWd5B9eIsf3-30">
          <mxGeometry y="52" width="160" height="8" as="geometry" />
        </mxCell>
        <mxCell id="p2f05vEZSLWd5B9eIsf3-33" value="+ reset()" style="text;strokeColor=none;fillColor=none;align=left;verticalAlign=top;spacingLeft=4;spacingRight=4;overflow=hidden;rotatable=0;points=[[0,0.5],[1,0.5]];portConstraint=eastwest;" vertex="1" parent="p2f05vEZSLWd5B9eIsf3-30">
          <mxGeometry y="60" width="160" height="26" as="geometry" />
        </mxCell>
        <mxCell id="p2f05vEZSLWd5B9eIsf3-34" value="+ setStep1()" style="text;strokeColor=none;fillColor=none;align=left;verticalAlign=top;spacingLeft=4;spacingRight=4;overflow=hidden;rotatable=0;points=[[0,0.5],[1,0.5]];portConstraint=eastwest;" vertex="1" parent="p2f05vEZSLWd5B9eIsf3-30">
          <mxGeometry y="86" width="160" height="26" as="geometry" />
        </mxCell>
        <mxCell id="p2f05vEZSLWd5B9eIsf3-35" value="+ setStep2()" style="text;strokeColor=none;fillColor=none;align=left;verticalAlign=top;spacingLeft=4;spacingRight=4;overflow=hidden;rotatable=0;points=[[0,0.5],[1,0.5]];portConstraint=eastwest;" vertex="1" parent="p2f05vEZSLWd5B9eIsf3-30">
          <mxGeometry y="112" width="160" height="26" as="geometry" />
        </mxCell>
        <mxCell id="p2f05vEZSLWd5B9eIsf3-36" value="+ setStep3()" style="text;strokeColor=none;fillColor=none;align=left;verticalAlign=top;spacingLeft=4;spacingRight=4;overflow=hidden;rotatable=0;points=[[0,0.5],[1,0.5]];portConstraint=eastwest;" vertex="1" parent="p2f05vEZSLWd5B9eIsf3-30">
          <mxGeometry y="138" width="160" height="26" as="geometry" />
        </mxCell>
        <mxCell id="p2f05vEZSLWd5B9eIsf3-37" value="+ otherOperation()" style="text;strokeColor=none;fillColor=none;align=left;verticalAlign=top;spacingLeft=4;spacingRight=4;overflow=hidden;rotatable=0;points=[[0,0.5],[1,0.5]];portConstraint=eastwest;" vertex="1" parent="p2f05vEZSLWd5B9eIsf3-30">
          <mxGeometry y="164" width="160" height="26" as="geometry" />
        </mxCell>
        <mxCell id="p2f05vEZSLWd5B9eIsf3-38" value="+ getResult(): ProduceB" style="text;strokeColor=none;fillColor=none;align=left;verticalAlign=top;spacingLeft=4;spacingRight=4;overflow=hidden;rotatable=0;points=[[0,0.5],[1,0.5]];portConstraint=eastwest;" vertex="1" parent="p2f05vEZSLWd5B9eIsf3-30">
          <mxGeometry y="190" width="160" height="26" as="geometry" />
        </mxCell>
        <mxCell id="p2f05vEZSLWd5B9eIsf3-51" value="&lt;p style=&quot;margin:0px;margin-top:4px;text-align:center;&quot;&gt;&lt;i&gt;&amp;lt;&amp;lt;Interface&amp;gt;&amp;gt;&lt;/i&gt;&lt;br&gt;&lt;b&gt;Builder&lt;/b&gt;&lt;/p&gt;&lt;p style=&quot;margin:0px;margin-left:4px;&quot;&gt;&lt;br&gt;&lt;/p&gt;&lt;hr size=&quot;1&quot;&gt;&lt;p style=&quot;margin:0px;margin-left:4px;&quot;&gt;+ reset()&lt;br&gt;+ setStep1()&lt;br&gt;&lt;/p&gt;&lt;p style=&quot;margin:0px;margin-left:4px;&quot;&gt;+ setStep2()&lt;br&gt;&lt;/p&gt;&lt;p style=&quot;margin:0px;margin-left:4px;&quot;&gt;+ setStep3()&lt;br&gt;&lt;/p&gt;&lt;p style=&quot;margin:0px;margin-left:4px;&quot;&gt;+ otherOperation()&lt;br&gt;&lt;/p&gt;" style="verticalAlign=top;align=left;overflow=fill;fontSize=12;fontFamily=Helvetica;html=1;" vertex="1" parent="1">
          <mxGeometry x="356" y="313" width="190" height="140" as="geometry" />
        </mxCell>
        <mxCell id="p2f05vEZSLWd5B9eIsf3-52" value="" style="endArrow=block;dashed=1;endFill=0;endSize=12;html=1;rounded=0;entryX=0.5;entryY=1;entryDx=0;entryDy=0;exitX=0.5;exitY=0;exitDx=0;exitDy=0;" edge="1" parent="1" source="p2f05vEZSLWd5B9eIsf3-6" target="p2f05vEZSLWd5B9eIsf3-51">
          <mxGeometry width="160" relative="1" as="geometry">
            <mxPoint x="320" y="520" as="sourcePoint" />
            <mxPoint x="480" y="520" as="targetPoint" />
          </mxGeometry>
        </mxCell>
        <mxCell id="p2f05vEZSLWd5B9eIsf3-53" value="" style="endArrow=block;dashed=1;endFill=0;endSize=12;html=1;rounded=0;entryX=0.5;entryY=1;entryDx=0;entryDy=0;exitX=0.5;exitY=0;exitDx=0;exitDy=0;" edge="1" parent="1" source="p2f05vEZSLWd5B9eIsf3-30" target="p2f05vEZSLWd5B9eIsf3-51">
          <mxGeometry width="160" relative="1" as="geometry">
            <mxPoint x="511" y="577" as="sourcePoint" />
            <mxPoint x="623" y="460" as="targetPoint" />
          </mxGeometry>
        </mxCell>
        <mxCell id="p2f05vEZSLWd5B9eIsf3-56" value="ProduceA" style="html=1;fontStyle=1" vertex="1" parent="1">
          <mxGeometry x="288" y="850" width="110" height="50" as="geometry" />
        </mxCell>
        <mxCell id="p2f05vEZSLWd5B9eIsf3-57" value="ProduceB" style="html=1;fontStyle=1" vertex="1" parent="1">
          <mxGeometry x="512" y="850" width="110" height="50" as="geometry" />
        </mxCell>
        <mxCell id="p2f05vEZSLWd5B9eIsf3-58" value="" style="endArrow=open;endFill=1;endSize=12;html=1;rounded=0;entryX=0.5;entryY=0;entryDx=0;entryDy=0;" edge="1" parent="1" source="p2f05vEZSLWd5B9eIsf3-18" target="p2f05vEZSLWd5B9eIsf3-56">
          <mxGeometry width="160" relative="1" as="geometry">
            <mxPoint x="343" y="790" as="sourcePoint" />
            <mxPoint x="440" y="810" as="targetPoint" />
          </mxGeometry>
        </mxCell>
        <mxCell id="p2f05vEZSLWd5B9eIsf3-59" value="" style="endArrow=open;endFill=1;endSize=12;html=1;rounded=0;entryX=0.5;entryY=0;entryDx=0;entryDy=0;" edge="1" parent="1">
          <mxGeometry width="160" relative="1" as="geometry">
            <mxPoint x="566.5" y="786" as="sourcePoint" />
            <mxPoint x="566.5" y="850" as="targetPoint" />
          </mxGeometry>
        </mxCell>
        <mxCell id="p2f05vEZSLWd5B9eIsf3-60" value="Client" style="html=1;fontStyle=1" vertex="1" parent="1">
          <mxGeometry x="220" y="190" width="110" height="50" as="geometry" />
        </mxCell>
        <mxCell id="p2f05vEZSLWd5B9eIsf3-61" value="" style="endArrow=open;endFill=1;endSize=12;html=1;rounded=0;entryX=0.5;entryY=0;entryDx=0;entryDy=0;exitX=0;exitY=0.5;exitDx=0;exitDy=0;" edge="1" parent="1" source="p2f05vEZSLWd5B9eIsf3-60" target="p2f05vEZSLWd5B9eIsf3-1">
          <mxGeometry width="160" relative="1" as="geometry">
            <mxPoint x="100" y="280" as="sourcePoint" />
            <mxPoint x="260" y="280" as="targetPoint" />
            <Array as="points">
              <mxPoint x="105" y="215" />
            </Array>
          </mxGeometry>
        </mxCell>
        <mxCell id="p2f05vEZSLWd5B9eIsf3-62" value="Use" style="endArrow=open;endSize=12;dashed=1;html=1;rounded=0;exitX=1;exitY=0.5;exitDx=0;exitDy=0;entryX=0.75;entryY=0;entryDx=0;entryDy=0;" edge="1" parent="1" source="p2f05vEZSLWd5B9eIsf3-60" target="p2f05vEZSLWd5B9eIsf3-30">
          <mxGeometry width="160" relative="1" as="geometry">
            <mxPoint x="480" y="200" as="sourcePoint" />
            <mxPoint x="640" y="200" as="targetPoint" />
            <Array as="points">
              <mxPoint x="607" y="215" />
            </Array>
          </mxGeometry>
        </mxCell>
        <mxCell id="p2f05vEZSLWd5B9eIsf3-64" value="" style="endArrow=none;dashed=1;html=1;dashPattern=1 3;strokeWidth=2;rounded=0;" edge="1" parent="1" source="p2f05vEZSLWd5B9eIsf3-33">
          <mxGeometry width="50" height="50" relative="1" as="geometry">
            <mxPoint x="549" y="643" as="sourcePoint" />
            <mxPoint x="690" y="610" as="targetPoint" />
          </mxGeometry>
        </mxCell>
        <mxCell id="p2f05vEZSLWd5B9eIsf3-65" value="produce = new ProduceB()" style="shape=note;whiteSpace=wrap;html=1;backgroundOutline=1;darkOpacity=0.05;align=left;fillColor=#6d8764;fontColor=#ffffff;strokeColor=#3A5431;" vertex="1" parent="1">
          <mxGeometry x="690" y="585" width="180" height="40" as="geometry" />
        </mxCell>
        <mxCell id="p2f05vEZSLWd5B9eIsf3-66" value="" style="endArrow=none;dashed=1;html=1;dashPattern=1 3;strokeWidth=2;rounded=0;" edge="1" parent="1">
          <mxGeometry width="50" height="50" relative="1" as="geometry">
            <mxPoint x="615.4545454545455" y="630" as="sourcePoint" />
            <mxPoint x="690" y="610" as="targetPoint" />
          </mxGeometry>
        </mxCell>
        <mxCell id="p2f05vEZSLWd5B9eIsf3-67" value="produce.setStep2()" style="shape=note;whiteSpace=wrap;html=1;backgroundOutline=1;darkOpacity=0.05;align=left;fillColor=#6d8764;fontColor=#ffffff;strokeColor=#3A5431;" vertex="1" parent="1">
          <mxGeometry x="690" y="655.5" width="180" height="40" as="geometry" />
        </mxCell>
        <mxCell id="p2f05vEZSLWd5B9eIsf3-69" value="return produce;" style="shape=note;whiteSpace=wrap;html=1;backgroundOutline=1;darkOpacity=0.05;align=left;fillColor=#6d8764;fontColor=#ffffff;strokeColor=#3A5431;" vertex="1" parent="1">
          <mxGeometry x="690" y="746" width="180" height="40" as="geometry" />
        </mxCell>
        <mxCell id="p2f05vEZSLWd5B9eIsf3-70" value="" style="endArrow=none;dashed=1;html=1;dashPattern=1 3;strokeWidth=2;rounded=0;entryX=0;entryY=0.5;entryDx=0;entryDy=0;entryPerimeter=0;" edge="1" parent="1" target="p2f05vEZSLWd5B9eIsf3-69">
          <mxGeometry width="50" height="50" relative="1" as="geometry">
            <mxPoint x="630" y="776.0691056910568" as="sourcePoint" />
            <mxPoint x="673" y="771" as="targetPoint" />
          </mxGeometry>
        </mxCell>
        <mxCell id="p2f05vEZSLWd5B9eIsf3-73" value="" style="endArrow=none;dashed=1;html=1;dashPattern=1 3;strokeWidth=2;rounded=0;" edge="1" parent="1">
          <mxGeometry width="50" height="50" relative="1" as="geometry">
            <mxPoint x="615.4545454545455" y="695.5" as="sourcePoint" />
            <mxPoint x="690" y="675.5" as="targetPoint" />
          </mxGeometry>
        </mxCell>
        <mxCell id="p2f05vEZSLWd5B9eIsf3-74" value="" style="endArrow=none;dashed=1;html=1;dashPattern=1 3;strokeWidth=2;rounded=0;entryX=0.198;entryY=0.969;entryDx=0;entryDy=0;entryPerimeter=0;" edge="1" parent="1" target="p2f05vEZSLWd5B9eIsf3-55">
          <mxGeometry width="50" height="50" relative="1" as="geometry">
            <mxPoint x="48" y="480" as="sourcePoint" />
            <mxPoint x="110" y="460" as="targetPoint" />
          </mxGeometry>
        </mxCell>
        <mxCell id="p2f05vEZSLWd5B9eIsf3-75" value="builder.reset()&lt;br&gt;if(type == &quot;simple&quot;){&lt;br&gt;&amp;nbsp; builder.setStep1()&lt;br&gt;} else {&lt;br&gt;&amp;nbsp; builder.setStep1()&lt;br&gt;&amp;nbsp; builder.setStep2()&lt;br&gt;}" style="shape=note;whiteSpace=wrap;html=1;backgroundOutline=1;darkOpacity=0.05;align=left;fillColor=#6d8764;fontColor=#ffffff;strokeColor=#3A5431;" vertex="1" parent="1">
          <mxGeometry x="10" y="480" width="190" height="110" as="geometry" />
        </mxCell>
        <mxCell id="p2f05vEZSLWd5B9eIsf3-76" value="" style="endArrow=none;dashed=1;html=1;dashPattern=1 3;strokeWidth=2;rounded=0;entryX=0.198;entryY=0.969;entryDx=0;entryDy=0;entryPerimeter=0;" edge="1" parent="1">
          <mxGeometry width="50" height="50" relative="1" as="geometry">
            <mxPoint x="274.88" y="190" as="sourcePoint" />
            <mxPoint x="274.4999999999999" y="140.19399999999996" as="targetPoint" />
          </mxGeometry>
        </mxCell>
        <mxCell id="p2f05vEZSLWd5B9eIsf3-77" value="ConcreteBuilderB builder = new ConcreteBuilderB();&lt;br&gt;Director director = new Director(builder);&lt;br&gt;String type = &quot;simple&quot;;&lt;br&gt;director.make(type);&lt;br&gt;ProduceB p = builder.getResult();" style="shape=note;whiteSpace=wrap;html=1;backgroundOutline=1;darkOpacity=0.05;align=left;spacing=2;fillColor=#6d8764;fontColor=#ffffff;strokeColor=#3A5431;" vertex="1" parent="1">
          <mxGeometry x="220" y="40" width="320" height="100" as="geometry" />
        </mxCell>
      </root>
    </mxGraphModel>
  </diagram>
</mxfile>
